<svg width="25" height="26" xmlns="http://www.w3.org/2000/svg">
    <g transform="translate(0 .5)" fill="none" fill-rule="evenodd">
        <circle fill="#FFF" cx="12.5" cy="12.5" r="12.5"/>
        <g fill-rule="nonzero">
            <path d="m11.38 5.14-1.428-.372a2.401 2.401 0 0 0-2.939 1.705l-.356 1.346A7.353 7.353 0 0 1 11.38 5.14zM5.118 13.613l-.35 1.318a2.401 2.401 0 0 0 1.705 2.937l1.362.363a7.355 7.355 0 0 1-2.717-4.618zM18.408 7.013l-1.527-.406a7.353 7.353 0 0 1 2.814 4.925l.42-1.59a2.401 2.401 0 0 0-1.707-2.929zM13.467 19.724l1.464.395a2.401 2.401 0 0 0 2.937-1.704l.413-1.552a7.358 7.358 0 0 1-4.814 2.861z" fill="#231F20"/>
            <path d="M12.442 5.717a6.725 6.725 0 1 0-.005 13.45 6.725 6.725 0 0 0 .005-13.45zM8.633 9.071a1.92 1.92 0 1 1 3.77.728 1.92 1.92 0 0 1-3.77-.728zm2.794 5.81a1.92 1.92 0 1 1-3.77-.732 1.92 1.92 0 0 1 3.77.732zm.815-1.554a.853.853 0 1 1 .324-1.676.853.853 0 0 1-.324 1.676zm4.006 2.48a1.92 1.92 0 1 1-3.77-.727 1.92 1.92 0 0 1 3.77.727zm-1.271-3.558a1.92 1.92 0 1 1 .727-3.775 1.92 1.92 0 0 1-.727 3.777v-.002z" fill="#ED145B"/>
        </g>
    </g>
</svg>
