<svg width="25" height="26" xmlns="http://www.w3.org/2000/svg" xmlns:xlink="http://www.w3.org/1999/xlink">
    <defs>
        <radialGradient cx="37.175%" cy="100.072%" fx="37.175%" fy="100.072%" r="124.654%" id="c">
            <stop stop-color="#FD5" offset="0%"/>
            <stop stop-color="#FF543F" offset="32.8%"/>
            <stop stop-color="#FC5245" offset="34.8%"/>
            <stop stop-color="#E64771" offset="50.4%"/>
            <stop stop-color="#D53E91" offset="64.3%"/>
            <stop stop-color="#CC39A4" offset="76.1%"/>
            <stop stop-color="#C837AB" offset="84.1%"/>
        </radialGradient>
        <radialGradient cx="16.092%" cy="-1.248%" fx="16.092%" fy="-1.248%" r="82.77%" id="d">
            <stop stop-color="#4168C9" offset="0%"/>
            <stop stop-color="#4168C9" stop-opacity="0" offset="99.9%"/>
        </radialGradient>
        <circle id="a" cx="12.5" cy="12.5" r="12.5"/>
    </defs>
    <g fill="none" fill-rule="evenodd">
        <g transform="translate(0 .5)">
            <mask id="b" fill="#fff">
                <use xlink:href="#a"/>
            </mask>
            <use fill="#D8D8D8" xlink:href="#a"/>
            <g mask="url(#b)" fill-rule="nonzero">
                <path d="m21.228 27.07-14.653.013c-3.223.003-5.863-2.631-5.867-5.855L.694 6.575C.692 3.352 3.326.712 6.55.708L21.202.694c3.224-.002 5.864 2.632 5.867 5.856l.014 14.652c.004 3.225-2.631 5.864-5.855 5.867z" fill="url(#c)" transform="translate(-2.083 -2.083)"/>
                <path d="m21.228 27.07-14.653.013c-3.223.003-5.863-2.631-5.867-5.855L.694 6.575C.692 3.352 3.326.712 6.55.708L21.202.694c3.224-.002 5.864 2.632 5.867 5.856l.014 14.652c.004 3.225-2.631 5.864-5.855 5.867z" fill="url(#d)" transform="translate(-2.083 -2.083)"/>
            </g>
        </g>
        <path d="M9.943 6.75a3.698 3.698 0 0 0-3.693 3.693v5.114a3.698 3.698 0 0 0 3.693 3.693h5.114a3.698 3.698 0 0 0 3.693-3.693v-5.114a3.698 3.698 0 0 0-3.693-3.693H9.943zm0 .568h5.114a3.12 3.12 0 0 1 3.125 3.125v5.114a3.12 3.12 0 0 1-3.125 3.125H9.943a3.12 3.12 0 0 1-3.125-3.125v-5.114a3.12 3.12 0 0 1 3.125-3.125zm5.966 1.705a.568.568 0 1 0 0 1.136.568.568 0 0 0 0-1.136zm-3.409.852A3.13 3.13 0 0 0 9.375 13a3.13 3.13 0 0 0 3.125 3.125A3.13 3.13 0 0 0 15.625 13 3.13 3.13 0 0 0 12.5 9.875zm0 .568A2.553 2.553 0 0 1 15.057 13a2.553 2.553 0 0 1-2.557 2.557A2.553 2.553 0 0 1 9.943 13a2.553 2.553 0 0 1 2.557-2.557z" stroke="#FFF" stroke-width=".35" fill="#FFF" fill-rule="nonzero"/>
    </g>
</svg>
