<svg width="25" height="26" xmlns="http://www.w3.org/2000/svg">
    <g fill="none" fill-rule="evenodd">
        <path d="M0 13c0 6.903 5.597 12.5 12.5 12.5S25 19.903 25 13 19.403.5 12.5.5 0 6.097 0 13z" fill="#0077B5"/>
        <path d="M19.845 19.397h-3.043v-4.9c0-1.231-.441-2.07-1.544-2.07-.84 0-1.34.565-1.561 1.112-.08.195-.1.469-.1.744v5.114h-3.044s.04-8.3 0-9.16h3.044v1.297c.405-.623 1.128-1.512 2.744-1.512 2.003 0 3.504 1.31 3.504 4.123v5.252zM7.327 8.988c-1.022 0-1.683-.704-1.683-1.583 0-.899.681-1.583 1.722-1.583 1.042 0 1.682.684 1.703 1.583 0 .88-.661 1.583-1.724 1.583h-.018zM5.823 19.397H8.87v-9.16H5.823z" fill="#FFF"/>
    </g>
</svg>
