<svg width="25" height="26" xmlns="http://www.w3.org/2000/svg">
    <g fill="none" fill-rule="evenodd">
        <path d="M25 13C25 6.095 19.405.5 12.5.5S0 6.095 0 13s5.595 12.5 12.5 12.5S25 19.905 25 13z" fill="#08C"/>
        <path d="M17.772 8.083c.56-.203 1.048.136.867.981l-2.052 9.667c-.151.686-.559.853-1.13.53l-3.124-2.303-1.506 1.451c-.168.168-.308.308-.632.308l.222-3.181 5.792-5.231c.253-.222-.056-.347-.389-.127l-7.156 4.506-3.086-.962c-.67-.213-.684-.669.142-.992l12.052-4.647z" fill="#FFF"/>
    </g>
</svg>
