<svg width="25" height="26" xmlns="http://www.w3.org/2000/svg">
    <g fill-rule="nonzero" fill="none">
        <path d="M12.5.5C5.596.5 0 6.096 0 13s5.596 12.5 12.5 12.5S25 19.904 25 13 19.404.5 12.5.5z" fill="#03A9F4"/>
        <path d="M20 8.7c-.551.244-1.25.474-1.875.55.636-.377 1.646-1.164 1.875-1.875-.594.35-1.67.723-2.37.857-.56-.593-1.36-.857-2.244-.857-1.7 0-2.886 1.44-2.886 3.125v1.25C10 11.75 7.562 9.846 6.046 8c-.267.45-.417.978-.417 1.536 0 1.136 1.044 2.29 1.871 2.839-.504-.016-1.46-.4-1.875-.625v.036c0 1.479 1.038 2.483 2.445 2.763-.257.071-.57.326-1.775.326.391 1.21 2.358 1.849 3.705 1.875C8.946 17.567 7.067 18 5.625 18c-.25 0-.384.014-.625-.014 1.361.862 3.262 1.264 5 1.264 5.66 0 8.75-4.324 8.75-8.356 0-.133-.004-.576-.011-.707.605-.426.85-.872 1.261-1.487" fill="#FFF"/>
    </g>
</svg>
