<svg width="25" height="26" xmlns="http://www.w3.org/2000/svg">
    <defs>
        <path id="a" d="M0 0h25v25H0z"/>
    </defs>
    <g fill="none" fill-rule="evenodd">
        <path d="M18.697 18.707a.733.733 0 0 1-.733-.733c0-5.747-4.675-10.425-10.423-10.425a.733.733 0 1 1 0-1.464 11.81 11.81 0 0 1 8.406 3.481 11.816 11.816 0 0 1 3.483 8.408.733.733 0 0 1-.733.733m-3.236 0a.732.732 0 0 1-.733-.733c0-3.964-3.225-7.188-7.187-7.188a.733.733 0 0 1 0-1.465c4.77 0 8.651 3.883 8.651 8.653a.732.732 0 0 1-.73.733m-3.277 0a.733.733 0 0 1-.733-.733A3.916 3.916 0 0 0 7.54 14.06a.733.733 0 1 1 0-1.464 5.383 5.383 0 0 1 5.377 5.377.733.733 0 0 1-.733.733m-3.92-.24a1.217 1.217 0 0 1 0-2.434c.67 0 1.217.547 1.217 1.216 0 .672-.547 1.217-1.218 1.217M21.338 4.16A12.42 12.42 0 0 0 12.5.5C9.161.5 6.022 1.8 3.661 4.16A12.424 12.424 0 0 0 .001 13c0 3.338 1.3 6.477 3.66 8.84 2.361 2.36 5.5 3.66 8.84 3.66 3.337 0 6.477-1.3 8.837-3.66A12.419 12.419 0 0 0 25 13c0-3.339-1.3-6.478-3.662-8.84" fill="#FECB04"/>
    </g>
</svg>
